<svg width="154" height="27" viewBox="0 0 154 27" fill="none" xmlns="http://www.w3.org/2000/svg">
<path d="M14.64 26.36C12.576 26.36 10.668 26.048 8.916 25.424C7.164 24.8 5.628 23.912 4.308 22.76C2.988 21.584 1.968 20.204 1.248 18.62C0.528 17.012 0.168 15.236 0.168 13.292C0.168 11.396 0.54 9.656 1.284 8.072C2.052 6.488 3.084 5.108 4.38 3.932C5.7 2.756 7.236 1.856 8.988 1.232C10.764 0.607999 12.672 0.295998 14.712 0.295998C16.128 0.295998 17.508 0.463998 18.852 0.799998C20.196 1.136 21.432 1.604 22.56 2.204C23.712 2.804 24.684 3.488 25.476 4.256L21.876 8.864C21.276 8.312 20.604 7.82 19.86 7.388C19.14 6.932 18.336 6.584 17.448 6.344C16.56 6.08 15.564 5.948 14.46 5.948C13.428 5.948 12.432 6.116 11.472 6.452C10.536 6.788 9.684 7.268 8.916 7.892C8.172 8.516 7.572 9.296 7.116 10.232C6.684 11.144 6.468 12.188 6.468 13.364C6.468 14.516 6.696 15.56 7.152 16.496C7.608 17.408 8.232 18.188 9.024 18.836C9.84 19.46 10.764 19.94 11.796 20.276C12.852 20.588 13.968 20.744 15.144 20.744C16.272 20.744 17.28 20.6 18.168 20.312C19.056 20 19.86 19.616 20.58 19.16C21.3 18.68 21.936 18.224 22.488 17.792L25.404 22.508C24.732 23.132 23.832 23.744 22.704 24.344C21.6 24.92 20.352 25.4 18.96 25.784C17.592 26.168 16.152 26.36 14.64 26.36ZM40.5341 26L29.5901 0.799998H35.9621L41.2181 13.508C41.4101 14.012 41.6381 14.564 41.9021 15.164C42.1661 15.74 42.4181 16.352 42.6581 17C42.9221 17.624 43.1741 18.272 43.4141 18.944C43.6541 19.616 43.8701 20.312 44.0621 21.032H42.8381C43.1021 20.144 43.3901 19.292 43.7021 18.476C44.0141 17.636 44.3381 16.808 44.6741 15.992C45.0101 15.176 45.3341 14.36 45.6461 13.544L50.6861 0.799998H56.9861L46.1501 26H40.5341Z" fill="#1976D2"/>
<path d="M76.3443 26.36C74.1843 26.36 72.2043 26.036 70.4043 25.388C68.6283 24.716 67.0803 23.792 65.7603 22.616C64.4643 21.44 63.4563 20.06 62.7363 18.476C62.0163 16.868 61.6563 15.14 61.6563 13.292C61.6563 11.42 62.0163 9.692 62.7363 8.108C63.4563 6.524 64.4763 5.144 65.7963 3.968C67.1163 2.792 68.6643 1.88 70.4403 1.232C72.2163 0.559999 74.1723 0.223999 76.3083 0.223999C78.4683 0.223999 80.4363 0.547999 82.2123 1.196C84.0123 1.844 85.5603 2.768 86.8563 3.968C88.1763 5.144 89.1843 6.524 89.8803 8.108C90.6003 9.692 90.9603 11.42 90.9603 13.292C90.9603 15.164 90.6003 16.892 89.8803 18.476C89.1843 20.06 88.1763 21.452 86.8563 22.652C85.5603 23.828 84.0123 24.74 82.2123 25.388C80.4363 26.036 78.4803 26.36 76.3443 26.36ZM76.3443 20.6C77.5683 20.6 78.6963 20.42 79.7283 20.06C80.7603 19.676 81.6483 19.16 82.3923 18.512C83.1363 17.84 83.7123 17.06 84.1203 16.172C84.5283 15.284 84.7323 14.324 84.7323 13.292C84.7323 12.26 84.5283 11.3 84.1203 10.412C83.7123 9.524 83.1363 8.756 82.3923 8.108C81.6483 7.436 80.7483 6.92 79.6923 6.56C78.6603 6.176 77.5443 5.984 76.3443 5.984C75.1203 5.984 73.9923 6.176 72.9603 6.56C71.9283 6.92 71.0283 7.424 70.2603 8.072C69.4923 8.72 68.9043 9.5 68.4963 10.412C68.1123 11.3 67.9203 12.26 67.9203 13.292C67.9203 14.324 68.1123 15.296 68.4963 16.208C68.9043 17.096 69.4923 17.864 70.2603 18.512C71.0283 19.16 71.9283 19.676 72.9603 20.06C73.9923 20.42 75.1203 20.6 76.3443 20.6ZM114.866 26L105.83 14.66L94.4183 0.799998H102.086L110.798 11.816L122.534 26H114.866ZM94.2383 26L105.182 12.284L110.006 15.128L101.618 26H94.2383ZM111.554 14.3L106.802 11.564L114.758 0.799998H122.138L111.554 14.3ZM136.587 26V14.156L137.091 16.496L125.031 0.799998H132.375L141.303 12.824L138.171 12.788L146.631 0.799998H153.579L142.419 16.136L142.743 13.868V26H136.587Z" fill="#5D9DDC"/>
</svg>
